# xmcd CD database file
#
# Track frame offsets:
#	202
#	21317
#	34127
#	42159
#	70328
#	99951
#	118111
#	147901
#	156235
#	165917
#	183685
#	192275
#	203241
#	217066
#	239916
#	256090
#	273462
#	302177
#
# Disc length: 4365 seconds
#
# Revision: 0
# Processed by: cddbd v1.5.2PL0 Copyright (c) Steve Scherf et al.
# Submitted via: CDex 1.51
#
DISCID=0f110b12
DTITLE=Lambert Wilson - Nuit Américaine
DYEAR=2005
DGENRE=Jazz
TTITLE0=Maria
TTITLE1=Something's Coming
TTITLE2=Ann Street
TTITLE3=This Is The Life
TTITLE4=Ev'ry Time We Say Goodbye
TTITLE5=Blackberry Winter
TTITLE6=And All That Jazz
TTITLE7=Early In The Morning
TTITLE8=Sonnet
TTITLE9=Summertime
TTITLE10=Nantucket
TTITLE11=Solitary Hotel
TTITLE12=Opus 101
TTITLE13=Anything Goes
TTITLE14=It Must Be So
TTITLE15=I Got Plenty O'Nuttin
TTITLE16=Bewitched
TTITLE17=Shenandoah
EXTD=YEAR: 2005
EXTT0=
EXTT1=
EXTT2=
EXTT3=
EXTT4=
EXTT5=
EXTT6=
EXTT7=
EXTT8=
EXTT9=
EXTT10=
EXTT11=
EXTT12=
EXTT13=
EXTT14=
EXTT15=
EXTT16=
EXTT17=
PLAYORDER=
